<svg id="Calque_1" data-name="Calque 1" xmlns="http://www.w3.org/2000/svg" viewBox="0 0 441.54 117.83"><defs><style>.cls-1{fill:#fff;}.cls-2{fill:#9bbf25;}</style></defs><path class="cls-1" d="M94.12,295.59H64.18l-30.7-73.44H26.35V199.29H78.08v22.86H69.92l14.32,40.7,15-40.7H91.36V199.29h38.79v22.86H123Z" transform="translate(-26.35 -178.86)"/><path class="cls-1" d="M179.53,273.7l28.7,3.5a26.22,26.22,0,0,1-5.4,8,33.11,33.11,0,0,1-8.43,6.15q-10,5.36-24,5.35-23.44,0-35.27-9.68t-11.82-25.19A32.24,32.24,0,0,1,135,236.43q11.55-10.17,31.33-10.16,19,0,31,9.61,11.76,9.54,12.52,29H157q.21,16.2,12.18,16.2Q176.34,281.11,179.53,273.7ZM157.4,256.26H177c.09-1.37.14-2.15.14-2.33a14.19,14.19,0,0,0-2.77-9,8.86,8.86,0,0,0-7.33-3.5,8.06,8.06,0,0,0-7.19,3.84,17.55,17.55,0,0,0-2.49,9.61A11.49,11.49,0,0,0,157.4,256.26Z" transform="translate(-26.35 -178.86)"/><path class="cls-1" d="M274.68,294.77H220.6V273.83h9.13V249.12H220.6V228.19h41.63v16.68a27.81,27.81,0,0,1,7.27-10.78,23.26,23.26,0,0,1,9.54-5.83q4.63-1.31,13.62-1.31v29.31c-.78,0-1.75-.07-2.9-.07q-10.65,0-15.84,2.13-5.39,2.21-7.33,5.77a20.86,20.86,0,0,0-2.07,9.74h10.16Z" transform="translate(-26.35 -178.86)"/><path class="cls-1" d="M357.11,294.77H303V273.83h9.12V249.12H303V228.19h41.63v16.68a27.67,27.67,0,0,1,7.26-10.78,23.26,23.26,0,0,1,9.54-5.83q4.63-1.31,13.62-1.31v29.31c-.78,0-1.75-.07-2.9-.07q-10.65,0-15.84,2.13-5.39,2.21-7.33,5.77a20.86,20.86,0,0,0-2.07,9.74h10.16Z" transform="translate(-26.35 -178.86)"/><path class="cls-1" d="M437.61,273.7l28.69,3.5a26.37,26.37,0,0,1-5.39,8,33.34,33.34,0,0,1-8.44,6.15q-10,5.36-24,5.35-23.44,0-35.27-9.68t-11.83-25.19a32.25,32.25,0,0,1,11.69-25.39q11.55-10.17,31.33-10.16,19,0,31,9.61,11.75,9.54,12.51,29H415.06q.21,16.2,12.17,16.2C432,281.11,435.48,278.64,437.61,273.7Zm-22.13-17.44h19.57c.09-1.37.13-2.15.13-2.33a14.25,14.25,0,0,0-2.76-9,8.87,8.87,0,0,0-7.33-3.5,8,8,0,0,0-7.19,3.84,17.55,17.55,0,0,0-2.49,9.61A11.49,11.49,0,0,0,415.48,256.26Z" transform="translate(-26.35 -178.86)"/><path class="cls-2" d="M346.17,214.49H310.09v-8.36H313v-18.2h-3v-8.36h36.13v11.17h-9.93v-2.81h-8.59v5.37h7.48v7.1h-7.48v5.73h8.59v-2.81h9.93Z" transform="translate(-26.35 -178.86)"/><path class="cls-2" d="M395.72,199.1l9.82,3.19a15.82,15.82,0,0,1-5.74,9.16Q395.26,215,387.29,215q-10.86,0-16.09-5.25A17.29,17.29,0,0,1,366,197a17.83,17.83,0,0,1,18.48-18.18q6.66,0,10.85,3v-2.33h9.08v12.75h-9.44a7.51,7.51,0,0,0-2.47-3.77,6.3,6.3,0,0,0-4-1.35q-6.14,0-6.14,9.76t6.36,9.79Q394.28,206.75,395.72,199.1Z" transform="translate(-26.35 -178.86)"/><path class="cls-2" d="M424.56,196.94a17,17,0,0,1,2.31-8.46,18.47,18.47,0,0,1,7.1-6.85,17.43,17.43,0,0,1,3.52-1.56,24.16,24.16,0,0,1,3.93-.89,30.29,30.29,0,0,1,4.46-.32q10.15,0,15.74,5.5a19.27,19.27,0,0,1,4.18,5.88,16.27,16.27,0,0,1,1.41,6.7,16.86,16.86,0,0,1-5.76,12.7q-5.76,5.4-15.57,5.4-9.5,0-15.39-5.07A16.34,16.34,0,0,1,424.56,196.94Zm16.42,0q0,5.82,1.23,7.86a3.92,3.92,0,0,0,3.67,2,4,4,0,0,0,3.69-2q1.23-2,1.23-7.93,0-5.74-1.2-7.83a4,4,0,0,0-3.72-2.06,4,4,0,0,0-3.67,2Q441,191,441,196.94Z" transform="translate(-26.35 -178.86)"/></svg>